<?xml version="1.0" encoding="utf-8"?>
<svg xmlns="http://www.w3.org/2000/svg" xmlns:xlink="http://www.w3.org/1999/xlink" style="margin: auto; background: rgb(241, 242, 243); display: block; z-index: 1; position: relative; shape-rendering: auto;" width="500" height="350" preserveAspectRatio="xMidYMid" viewBox="0 0 500 350">
<g transform="translate(250,175) scale(1,1) translate(-250,-175)"><defs>
  <linearGradient id="lg-0" x1="0" x2="1" y1="0" y2="0">
  <stop stop-color="#023169" offset="0.25"></stop>
  <stop stop-color="#f0f5f6" offset="0.75"></stop>
  </linearGradient>
</defs>
<path d="M0 -52.5 c55 105 445 -105 500 0
L500 129.5 c195 -105 -695 105 -500 0Z" fill="url(#lg-0)" stroke="none">
 <animate attributeName="d" repeatCount="indefinite" dur="2s" begin="0s" calcMode="spline" keySplines="0.5 0 0.5 1;0.5 0 0.5 1" keyTimes="0;0.5;1" values="M0 -52.5 c55 105 445 -105 500 0
L500 129.5 c195 -105 -695 105 -500 0Z;M0 -52.5 c195 105 305 -105 500 0
L500 129.5 c55 -105 -555 105 -500 0Z;M0 -52.5 c55 105 445 -105 500 0
L500 129.5 c195 -105 -695 105 -500 0Z"></animate>
</path><defs>
  <linearGradient id="lg-1" x1="0" x2="1" y1="0" y2="0">
  <stop stop-color="#a2b4bc" offset="0.25"></stop>
  <stop stop-color="#f0f5f6" offset="0.75"></stop>
  </linearGradient>
</defs>
<path d="M0 38.5 c195 105 305 -105 500 0
L500 220.5 c55 -105 -555 105 -500 0Z" fill="url(#lg-1)" stroke="none">
 <animate attributeName="d" repeatCount="indefinite" dur="2s" begin="-0.4s" calcMode="spline" keySplines="0.5 0 0.5 1;0.5 0 0.5 1" keyTimes="0;0.5;1" values="M0 38.5 c195 105 305 -105 500 0
L500 220.5 c55 -105 -555 105 -500 0Z;M0 38.5 c55 105 445 -105 500 0
L500 220.5 c195 -105 -695 105 -500 0Z;M0 38.5 c195 105 305 -105 500 0
L500 220.5 c55 -105 -555 105 -500 0Z"></animate>
</path><defs>
  <linearGradient id="lg-2" x1="0" x2="1" y1="0" y2="0">
  <stop stop-color="#a2b4bc" offset="0.25"></stop>
  <stop stop-color="#7394a4" offset="0.75"></stop>
  </linearGradient>
</defs>
<path d="M0 129.5 c55 105 445 -105 500 0
L500 311.5 c195 -105 -695 105 -500 0Z" fill="url(#lg-2)" stroke="none">
 <animate attributeName="d" repeatCount="indefinite" dur="2s" begin="-0.8s" calcMode="spline" keySplines="0.5 0 0.5 1;0.5 0 0.5 1" keyTimes="0;0.5;1" values="M0 129.5 c55 105 445 -105 500 0
L500 311.5 c195 -105 -695 105 -500 0Z;M0 129.5 c195 105 305 -105 500 0
L500 311.5 c55 -105 -555 105 -500 0Z;M0 129.5 c55 105 445 -105 500 0
L500 311.5 c195 -105 -695 105 -500 0Z"></animate>
</path><defs>
  <linearGradient id="lg-3" x1="0" x2="1" y1="0" y2="0">
  <stop stop-color="#32495c" offset="0.25"></stop>
  <stop stop-color="#7394a4" offset="0.75"></stop>
  </linearGradient>
</defs>
<path d="M0 220.5 c195 105 305 -105 500 0
L500 402.5 c55 -105 -555 105 -500 0Z" fill="url(#lg-3)" stroke="none">
 <animate attributeName="d" repeatCount="indefinite" dur="2s" begin="-1.2s" calcMode="spline" keySplines="0.5 0 0.5 1;0.5 0 0.5 1" keyTimes="0;0.5;1" values="M0 220.5 c195 105 305 -105 500 0
L500 402.5 c55 -105 -555 105 -500 0Z;M0 220.5 c55 105 445 -105 500 0
L500 402.5 c195 -105 -695 105 -500 0Z;M0 220.5 c195 105 305 -105 500 0
L500 402.5 c55 -105 -555 105 -500 0Z"></animate>
</path><defs>
  <linearGradient id="lg-4" x1="0" x2="1" y1="0" y2="0">
  <stop stop-color="#32495c" offset="0.25"></stop>
  <stop stop-color="#0e151e" offset="0.75"></stop>
  </linearGradient>
</defs>
<path d="M0 311.5 c55 105 445 -105 500 0
L500 493.5 c195 -105 -695 105 -500 0Z" fill="url(#lg-4)" stroke="none">
 <animate attributeName="d" repeatCount="indefinite" dur="2s" begin="-1.6s" calcMode="spline" keySplines="0.5 0 0.5 1;0.5 0 0.5 1" keyTimes="0;0.5;1" values="M0 311.5 c55 105 445 -105 500 0
L500 493.5 c195 -105 -695 105 -500 0Z;M0 311.5 c195 105 305 -105 500 0
L500 493.5 c55 -105 -555 105 -500 0Z;M0 311.5 c55 105 445 -105 500 0
L500 493.5 c195 -105 -695 105 -500 0Z"></animate>
</path></g>
</svg>